M48
;GenerationSoftware,Autodesk,EAGLE,9.6.2*%
;CreationDate,2022-12-05T06:48:08Z*%
FMAT,2
ICI,OFF
METRIC,TZ,000.000
T8C0.350
T7C0.889
T6C1.000
T5C1.016
T4C1.400
T3C2.000
T2C2.500
T1C3.175
%
G90
M71
T1
X72390Y46990
X3505Y5613
X3810Y46990
X72390Y3810
T2
X33100Y9540
X43100Y9540
T3
X11176Y22860
X54864Y22860
X11176Y45720
X54864Y45720
T4
X20220Y10120
X20220Y5120
X7720Y5120
X7720Y10120
T5
X29464Y45720
X32004Y45720
X34544Y45720
X37084Y45720
T6
X35600Y2540
X38100Y2540
X40600Y2540
T7
X18610Y39650
X21150Y42190
X21150Y39650
X23690Y42190
X26230Y42190
X26230Y39650
X28770Y42190
X28770Y39650
X31310Y42190
X31310Y39650
X33850Y42190
X33850Y39650
X36390Y42190
X36390Y39650
X38930Y42190
X38930Y39650
X41470Y42190
X41470Y39650
X44010Y42190
X44010Y39650
X46550Y42190
X46550Y39650
X49090Y42190
X49090Y39650
X51630Y42190
X51630Y39650
X8450Y16790
X8450Y14250
X10990Y16790
X10990Y14250
X13530Y16790
X13530Y14250
X16070Y16790
X16070Y14250
X18610Y16790
X18610Y14250
X21150Y16790
X21150Y14250
X23690Y16790
X23690Y14250
X26230Y16790
X26230Y14250
X28770Y16790
X28770Y14250
X31310Y16790
X31310Y14250
X33850Y16790
X33850Y14250
X36390Y16790
X36390Y14250
X38930Y16790
X38930Y14250
X41470Y16790
X41470Y14250
X44010Y16790
X46550Y16790
X46550Y14250
X49090Y16790
X49090Y14250
X51630Y16790
X51630Y14250
X72390Y40640
X44010Y14250
X72390Y35560
X8450Y39650
X8450Y42190
X23690Y39650
X10990Y42190
X10990Y39650
X13530Y42190
X13530Y39650
X16070Y42190
X16070Y39650
X18610Y42190
X72390Y38100
T8
X69850Y41148
X69342Y27940
X41402Y32766
X39116Y32766
X24130Y5334
M30