G04 EAGLE Gerber RS-274X export*
G75*
%MOMM*%
%FSLAX34Y34*%
%LPD*%
%INSoldermask Top*%
%IPPOS*%
%AMOC8*
5,1,8,0,0,1.08239X$1,22.5*%
G01*
%ADD10R,1.676400X1.676400*%
%ADD11P,1.814519X8X22.500000*%
%ADD12C,2.152400*%
%ADD13C,1.930400*%
%ADD14R,1.803400X1.803400*%
%ADD15C,1.803400*%
%ADD16C,2.112400*%
%ADD17R,0.952400X0.952400*%
%ADD18C,1.552400*%
%ADD19C,2.652400*%
%ADD20R,1.183641X1.102359*%
%ADD21C,4.597400*%
%ADD22C,0.609600*%
%ADD23C,1.168400*%


D10*
X84500Y421900D03*
D11*
X84500Y396500D03*
X109900Y421900D03*
X109900Y396500D03*
X135300Y421900D03*
X135300Y396500D03*
X160700Y421900D03*
X160700Y396500D03*
X186100Y421900D03*
X186100Y396500D03*
X211500Y421900D03*
X211500Y396500D03*
X236900Y421900D03*
X236900Y396500D03*
X262300Y421900D03*
X262300Y396500D03*
X287700Y421900D03*
X287700Y396500D03*
X313100Y421900D03*
X313100Y396500D03*
X338500Y421900D03*
X338500Y396500D03*
X363900Y421900D03*
X363900Y396500D03*
X389300Y421900D03*
X389300Y396500D03*
X414700Y421900D03*
X414700Y396500D03*
X440100Y421900D03*
X440100Y396500D03*
X465500Y421900D03*
X465500Y396500D03*
X490900Y421900D03*
X490900Y396500D03*
X516300Y421900D03*
X516300Y396500D03*
D10*
X84500Y167900D03*
D11*
X84500Y142500D03*
X109900Y167900D03*
X109900Y142500D03*
X135300Y167900D03*
X135300Y142500D03*
X160700Y167900D03*
X160700Y142500D03*
X186100Y167900D03*
X186100Y142500D03*
X211500Y167900D03*
X211500Y142500D03*
X236900Y167900D03*
X236900Y142500D03*
X262300Y167900D03*
X262300Y142500D03*
X287700Y167900D03*
X287700Y142500D03*
X313100Y167900D03*
X313100Y142500D03*
X338500Y167900D03*
X338500Y142500D03*
X363900Y167900D03*
X363900Y142500D03*
X389300Y167900D03*
X389300Y142500D03*
X414700Y167900D03*
X414700Y142500D03*
X440100Y167900D03*
X440100Y142500D03*
X465500Y167900D03*
X465500Y142500D03*
X490900Y167900D03*
X490900Y142500D03*
X516300Y167900D03*
X516300Y142500D03*
D12*
X111760Y228600D03*
X548640Y228600D03*
X111760Y457200D03*
X548640Y457200D03*
D13*
X370840Y457200D03*
X345440Y457200D03*
X320040Y457200D03*
X294640Y457200D03*
D14*
X723900Y406400D03*
D15*
X723900Y381000D03*
X723900Y355600D03*
D16*
X202200Y101200D03*
X202200Y51200D03*
X77200Y51200D03*
X77200Y101200D03*
D17*
X665600Y406400D03*
X680600Y406400D03*
D18*
X356000Y25400D03*
X381000Y25400D03*
X406000Y25400D03*
D19*
X331000Y95400D03*
X431000Y95400D03*
D20*
X414020Y347599D03*
X414020Y363601D03*
X391160Y363601D03*
X391160Y347599D03*
D17*
X665600Y279400D03*
X680600Y279400D03*
D20*
X241300Y68199D03*
X241300Y84201D03*
D21*
X35052Y56134D03*
X38100Y469900D03*
X723900Y38100D03*
X723900Y469900D03*
D22*
X27432Y106934D02*
X27434Y107121D01*
X27441Y107308D01*
X27453Y107495D01*
X27469Y107681D01*
X27489Y107867D01*
X27514Y108052D01*
X27544Y108237D01*
X27578Y108421D01*
X27617Y108604D01*
X27660Y108786D01*
X27708Y108966D01*
X27760Y109146D01*
X27817Y109324D01*
X27877Y109501D01*
X27943Y109676D01*
X28012Y109850D01*
X28086Y110022D01*
X28164Y110192D01*
X28246Y110360D01*
X28332Y110526D01*
X28422Y110690D01*
X28516Y110851D01*
X28614Y111011D01*
X28716Y111167D01*
X28822Y111322D01*
X28932Y111473D01*
X29045Y111622D01*
X29162Y111768D01*
X29282Y111911D01*
X29406Y112051D01*
X29533Y112188D01*
X29664Y112322D01*
X29798Y112453D01*
X29935Y112580D01*
X30075Y112704D01*
X30218Y112824D01*
X30364Y112941D01*
X30513Y113054D01*
X30664Y113164D01*
X30819Y113270D01*
X30975Y113372D01*
X31135Y113470D01*
X31296Y113564D01*
X31460Y113654D01*
X31626Y113740D01*
X31794Y113822D01*
X31964Y113900D01*
X32136Y113974D01*
X32310Y114043D01*
X32485Y114109D01*
X32662Y114169D01*
X32840Y114226D01*
X33020Y114278D01*
X33200Y114326D01*
X33382Y114369D01*
X33565Y114408D01*
X33749Y114442D01*
X33934Y114472D01*
X34119Y114497D01*
X34305Y114517D01*
X34491Y114533D01*
X34678Y114545D01*
X34865Y114552D01*
X35052Y114554D01*
X35239Y114552D01*
X35426Y114545D01*
X35613Y114533D01*
X35799Y114517D01*
X35985Y114497D01*
X36170Y114472D01*
X36355Y114442D01*
X36539Y114408D01*
X36722Y114369D01*
X36904Y114326D01*
X37084Y114278D01*
X37264Y114226D01*
X37442Y114169D01*
X37619Y114109D01*
X37794Y114043D01*
X37968Y113974D01*
X38140Y113900D01*
X38310Y113822D01*
X38478Y113740D01*
X38644Y113654D01*
X38808Y113564D01*
X38969Y113470D01*
X39129Y113372D01*
X39285Y113270D01*
X39440Y113164D01*
X39591Y113054D01*
X39740Y112941D01*
X39886Y112824D01*
X40029Y112704D01*
X40169Y112580D01*
X40306Y112453D01*
X40440Y112322D01*
X40571Y112188D01*
X40698Y112051D01*
X40822Y111911D01*
X40942Y111768D01*
X41059Y111622D01*
X41172Y111473D01*
X41282Y111322D01*
X41388Y111167D01*
X41490Y111011D01*
X41588Y110851D01*
X41682Y110690D01*
X41772Y110526D01*
X41858Y110360D01*
X41940Y110192D01*
X42018Y110022D01*
X42092Y109850D01*
X42161Y109676D01*
X42227Y109501D01*
X42287Y109324D01*
X42344Y109146D01*
X42396Y108966D01*
X42444Y108786D01*
X42487Y108604D01*
X42526Y108421D01*
X42560Y108237D01*
X42590Y108052D01*
X42615Y107867D01*
X42635Y107681D01*
X42651Y107495D01*
X42663Y107308D01*
X42670Y107121D01*
X42672Y106934D01*
X42670Y106747D01*
X42663Y106560D01*
X42651Y106373D01*
X42635Y106187D01*
X42615Y106001D01*
X42590Y105816D01*
X42560Y105631D01*
X42526Y105447D01*
X42487Y105264D01*
X42444Y105082D01*
X42396Y104902D01*
X42344Y104722D01*
X42287Y104544D01*
X42227Y104367D01*
X42161Y104192D01*
X42092Y104018D01*
X42018Y103846D01*
X41940Y103676D01*
X41858Y103508D01*
X41772Y103342D01*
X41682Y103178D01*
X41588Y103017D01*
X41490Y102857D01*
X41388Y102701D01*
X41282Y102546D01*
X41172Y102395D01*
X41059Y102246D01*
X40942Y102100D01*
X40822Y101957D01*
X40698Y101817D01*
X40571Y101680D01*
X40440Y101546D01*
X40306Y101415D01*
X40169Y101288D01*
X40029Y101164D01*
X39886Y101044D01*
X39740Y100927D01*
X39591Y100814D01*
X39440Y100704D01*
X39285Y100598D01*
X39129Y100496D01*
X38969Y100398D01*
X38808Y100304D01*
X38644Y100214D01*
X38478Y100128D01*
X38310Y100046D01*
X38140Y99968D01*
X37968Y99894D01*
X37794Y99825D01*
X37619Y99759D01*
X37442Y99699D01*
X37264Y99642D01*
X37084Y99590D01*
X36904Y99542D01*
X36722Y99499D01*
X36539Y99460D01*
X36355Y99426D01*
X36170Y99396D01*
X35985Y99371D01*
X35799Y99351D01*
X35613Y99335D01*
X35426Y99323D01*
X35239Y99316D01*
X35052Y99314D01*
X34865Y99316D01*
X34678Y99323D01*
X34491Y99335D01*
X34305Y99351D01*
X34119Y99371D01*
X33934Y99396D01*
X33749Y99426D01*
X33565Y99460D01*
X33382Y99499D01*
X33200Y99542D01*
X33020Y99590D01*
X32840Y99642D01*
X32662Y99699D01*
X32485Y99759D01*
X32310Y99825D01*
X32136Y99894D01*
X31964Y99968D01*
X31794Y100046D01*
X31626Y100128D01*
X31460Y100214D01*
X31296Y100304D01*
X31135Y100398D01*
X30975Y100496D01*
X30819Y100598D01*
X30664Y100704D01*
X30513Y100814D01*
X30364Y100927D01*
X30218Y101044D01*
X30075Y101164D01*
X29935Y101288D01*
X29798Y101415D01*
X29664Y101546D01*
X29533Y101680D01*
X29406Y101817D01*
X29282Y101957D01*
X29162Y102100D01*
X29045Y102246D01*
X28932Y102395D01*
X28822Y102546D01*
X28716Y102701D01*
X28614Y102857D01*
X28516Y103017D01*
X28422Y103178D01*
X28332Y103342D01*
X28246Y103508D01*
X28164Y103676D01*
X28086Y103846D01*
X28012Y104018D01*
X27943Y104192D01*
X27877Y104367D01*
X27817Y104544D01*
X27760Y104722D01*
X27708Y104902D01*
X27660Y105082D01*
X27617Y105264D01*
X27578Y105447D01*
X27544Y105631D01*
X27514Y105816D01*
X27489Y106001D01*
X27469Y106187D01*
X27453Y106373D01*
X27441Y106560D01*
X27434Y106747D01*
X27432Y106934D01*
D23*
X35052Y106934D03*
D22*
X665480Y88900D02*
X665482Y89087D01*
X665489Y89274D01*
X665501Y89461D01*
X665517Y89647D01*
X665537Y89833D01*
X665562Y90018D01*
X665592Y90203D01*
X665626Y90387D01*
X665665Y90570D01*
X665708Y90752D01*
X665756Y90932D01*
X665808Y91112D01*
X665865Y91290D01*
X665925Y91467D01*
X665991Y91642D01*
X666060Y91816D01*
X666134Y91988D01*
X666212Y92158D01*
X666294Y92326D01*
X666380Y92492D01*
X666470Y92656D01*
X666564Y92817D01*
X666662Y92977D01*
X666764Y93133D01*
X666870Y93288D01*
X666980Y93439D01*
X667093Y93588D01*
X667210Y93734D01*
X667330Y93877D01*
X667454Y94017D01*
X667581Y94154D01*
X667712Y94288D01*
X667846Y94419D01*
X667983Y94546D01*
X668123Y94670D01*
X668266Y94790D01*
X668412Y94907D01*
X668561Y95020D01*
X668712Y95130D01*
X668867Y95236D01*
X669023Y95338D01*
X669183Y95436D01*
X669344Y95530D01*
X669508Y95620D01*
X669674Y95706D01*
X669842Y95788D01*
X670012Y95866D01*
X670184Y95940D01*
X670358Y96009D01*
X670533Y96075D01*
X670710Y96135D01*
X670888Y96192D01*
X671068Y96244D01*
X671248Y96292D01*
X671430Y96335D01*
X671613Y96374D01*
X671797Y96408D01*
X671982Y96438D01*
X672167Y96463D01*
X672353Y96483D01*
X672539Y96499D01*
X672726Y96511D01*
X672913Y96518D01*
X673100Y96520D01*
X673287Y96518D01*
X673474Y96511D01*
X673661Y96499D01*
X673847Y96483D01*
X674033Y96463D01*
X674218Y96438D01*
X674403Y96408D01*
X674587Y96374D01*
X674770Y96335D01*
X674952Y96292D01*
X675132Y96244D01*
X675312Y96192D01*
X675490Y96135D01*
X675667Y96075D01*
X675842Y96009D01*
X676016Y95940D01*
X676188Y95866D01*
X676358Y95788D01*
X676526Y95706D01*
X676692Y95620D01*
X676856Y95530D01*
X677017Y95436D01*
X677177Y95338D01*
X677333Y95236D01*
X677488Y95130D01*
X677639Y95020D01*
X677788Y94907D01*
X677934Y94790D01*
X678077Y94670D01*
X678217Y94546D01*
X678354Y94419D01*
X678488Y94288D01*
X678619Y94154D01*
X678746Y94017D01*
X678870Y93877D01*
X678990Y93734D01*
X679107Y93588D01*
X679220Y93439D01*
X679330Y93288D01*
X679436Y93133D01*
X679538Y92977D01*
X679636Y92817D01*
X679730Y92656D01*
X679820Y92492D01*
X679906Y92326D01*
X679988Y92158D01*
X680066Y91988D01*
X680140Y91816D01*
X680209Y91642D01*
X680275Y91467D01*
X680335Y91290D01*
X680392Y91112D01*
X680444Y90932D01*
X680492Y90752D01*
X680535Y90570D01*
X680574Y90387D01*
X680608Y90203D01*
X680638Y90018D01*
X680663Y89833D01*
X680683Y89647D01*
X680699Y89461D01*
X680711Y89274D01*
X680718Y89087D01*
X680720Y88900D01*
X680718Y88713D01*
X680711Y88526D01*
X680699Y88339D01*
X680683Y88153D01*
X680663Y87967D01*
X680638Y87782D01*
X680608Y87597D01*
X680574Y87413D01*
X680535Y87230D01*
X680492Y87048D01*
X680444Y86868D01*
X680392Y86688D01*
X680335Y86510D01*
X680275Y86333D01*
X680209Y86158D01*
X680140Y85984D01*
X680066Y85812D01*
X679988Y85642D01*
X679906Y85474D01*
X679820Y85308D01*
X679730Y85144D01*
X679636Y84983D01*
X679538Y84823D01*
X679436Y84667D01*
X679330Y84512D01*
X679220Y84361D01*
X679107Y84212D01*
X678990Y84066D01*
X678870Y83923D01*
X678746Y83783D01*
X678619Y83646D01*
X678488Y83512D01*
X678354Y83381D01*
X678217Y83254D01*
X678077Y83130D01*
X677934Y83010D01*
X677788Y82893D01*
X677639Y82780D01*
X677488Y82670D01*
X677333Y82564D01*
X677177Y82462D01*
X677017Y82364D01*
X676856Y82270D01*
X676692Y82180D01*
X676526Y82094D01*
X676358Y82012D01*
X676188Y81934D01*
X676016Y81860D01*
X675842Y81791D01*
X675667Y81725D01*
X675490Y81665D01*
X675312Y81608D01*
X675132Y81556D01*
X674952Y81508D01*
X674770Y81465D01*
X674587Y81426D01*
X674403Y81392D01*
X674218Y81362D01*
X674033Y81337D01*
X673847Y81317D01*
X673661Y81301D01*
X673474Y81289D01*
X673287Y81282D01*
X673100Y81280D01*
X672913Y81282D01*
X672726Y81289D01*
X672539Y81301D01*
X672353Y81317D01*
X672167Y81337D01*
X671982Y81362D01*
X671797Y81392D01*
X671613Y81426D01*
X671430Y81465D01*
X671248Y81508D01*
X671068Y81556D01*
X670888Y81608D01*
X670710Y81665D01*
X670533Y81725D01*
X670358Y81791D01*
X670184Y81860D01*
X670012Y81934D01*
X669842Y82012D01*
X669674Y82094D01*
X669508Y82180D01*
X669344Y82270D01*
X669183Y82364D01*
X669023Y82462D01*
X668867Y82564D01*
X668712Y82670D01*
X668561Y82780D01*
X668412Y82893D01*
X668266Y83010D01*
X668123Y83130D01*
X667983Y83254D01*
X667846Y83381D01*
X667712Y83512D01*
X667581Y83646D01*
X667454Y83783D01*
X667330Y83923D01*
X667210Y84066D01*
X667093Y84212D01*
X666980Y84361D01*
X666870Y84512D01*
X666764Y84667D01*
X666662Y84823D01*
X666564Y84983D01*
X666470Y85144D01*
X666380Y85308D01*
X666294Y85474D01*
X666212Y85642D01*
X666134Y85812D01*
X666060Y85984D01*
X665991Y86158D01*
X665925Y86333D01*
X665865Y86510D01*
X665808Y86688D01*
X665756Y86868D01*
X665708Y87048D01*
X665665Y87230D01*
X665626Y87413D01*
X665592Y87597D01*
X665562Y87782D01*
X665537Y87967D01*
X665517Y88153D01*
X665501Y88339D01*
X665489Y88526D01*
X665482Y88713D01*
X665480Y88900D01*
D23*
X673100Y88900D03*
D22*
X665480Y469900D02*
X665482Y470087D01*
X665489Y470274D01*
X665501Y470461D01*
X665517Y470647D01*
X665537Y470833D01*
X665562Y471018D01*
X665592Y471203D01*
X665626Y471387D01*
X665665Y471570D01*
X665708Y471752D01*
X665756Y471932D01*
X665808Y472112D01*
X665865Y472290D01*
X665925Y472467D01*
X665991Y472642D01*
X666060Y472816D01*
X666134Y472988D01*
X666212Y473158D01*
X666294Y473326D01*
X666380Y473492D01*
X666470Y473656D01*
X666564Y473817D01*
X666662Y473977D01*
X666764Y474133D01*
X666870Y474288D01*
X666980Y474439D01*
X667093Y474588D01*
X667210Y474734D01*
X667330Y474877D01*
X667454Y475017D01*
X667581Y475154D01*
X667712Y475288D01*
X667846Y475419D01*
X667983Y475546D01*
X668123Y475670D01*
X668266Y475790D01*
X668412Y475907D01*
X668561Y476020D01*
X668712Y476130D01*
X668867Y476236D01*
X669023Y476338D01*
X669183Y476436D01*
X669344Y476530D01*
X669508Y476620D01*
X669674Y476706D01*
X669842Y476788D01*
X670012Y476866D01*
X670184Y476940D01*
X670358Y477009D01*
X670533Y477075D01*
X670710Y477135D01*
X670888Y477192D01*
X671068Y477244D01*
X671248Y477292D01*
X671430Y477335D01*
X671613Y477374D01*
X671797Y477408D01*
X671982Y477438D01*
X672167Y477463D01*
X672353Y477483D01*
X672539Y477499D01*
X672726Y477511D01*
X672913Y477518D01*
X673100Y477520D01*
X673287Y477518D01*
X673474Y477511D01*
X673661Y477499D01*
X673847Y477483D01*
X674033Y477463D01*
X674218Y477438D01*
X674403Y477408D01*
X674587Y477374D01*
X674770Y477335D01*
X674952Y477292D01*
X675132Y477244D01*
X675312Y477192D01*
X675490Y477135D01*
X675667Y477075D01*
X675842Y477009D01*
X676016Y476940D01*
X676188Y476866D01*
X676358Y476788D01*
X676526Y476706D01*
X676692Y476620D01*
X676856Y476530D01*
X677017Y476436D01*
X677177Y476338D01*
X677333Y476236D01*
X677488Y476130D01*
X677639Y476020D01*
X677788Y475907D01*
X677934Y475790D01*
X678077Y475670D01*
X678217Y475546D01*
X678354Y475419D01*
X678488Y475288D01*
X678619Y475154D01*
X678746Y475017D01*
X678870Y474877D01*
X678990Y474734D01*
X679107Y474588D01*
X679220Y474439D01*
X679330Y474288D01*
X679436Y474133D01*
X679538Y473977D01*
X679636Y473817D01*
X679730Y473656D01*
X679820Y473492D01*
X679906Y473326D01*
X679988Y473158D01*
X680066Y472988D01*
X680140Y472816D01*
X680209Y472642D01*
X680275Y472467D01*
X680335Y472290D01*
X680392Y472112D01*
X680444Y471932D01*
X680492Y471752D01*
X680535Y471570D01*
X680574Y471387D01*
X680608Y471203D01*
X680638Y471018D01*
X680663Y470833D01*
X680683Y470647D01*
X680699Y470461D01*
X680711Y470274D01*
X680718Y470087D01*
X680720Y469900D01*
X680718Y469713D01*
X680711Y469526D01*
X680699Y469339D01*
X680683Y469153D01*
X680663Y468967D01*
X680638Y468782D01*
X680608Y468597D01*
X680574Y468413D01*
X680535Y468230D01*
X680492Y468048D01*
X680444Y467868D01*
X680392Y467688D01*
X680335Y467510D01*
X680275Y467333D01*
X680209Y467158D01*
X680140Y466984D01*
X680066Y466812D01*
X679988Y466642D01*
X679906Y466474D01*
X679820Y466308D01*
X679730Y466144D01*
X679636Y465983D01*
X679538Y465823D01*
X679436Y465667D01*
X679330Y465512D01*
X679220Y465361D01*
X679107Y465212D01*
X678990Y465066D01*
X678870Y464923D01*
X678746Y464783D01*
X678619Y464646D01*
X678488Y464512D01*
X678354Y464381D01*
X678217Y464254D01*
X678077Y464130D01*
X677934Y464010D01*
X677788Y463893D01*
X677639Y463780D01*
X677488Y463670D01*
X677333Y463564D01*
X677177Y463462D01*
X677017Y463364D01*
X676856Y463270D01*
X676692Y463180D01*
X676526Y463094D01*
X676358Y463012D01*
X676188Y462934D01*
X676016Y462860D01*
X675842Y462791D01*
X675667Y462725D01*
X675490Y462665D01*
X675312Y462608D01*
X675132Y462556D01*
X674952Y462508D01*
X674770Y462465D01*
X674587Y462426D01*
X674403Y462392D01*
X674218Y462362D01*
X674033Y462337D01*
X673847Y462317D01*
X673661Y462301D01*
X673474Y462289D01*
X673287Y462282D01*
X673100Y462280D01*
X672913Y462282D01*
X672726Y462289D01*
X672539Y462301D01*
X672353Y462317D01*
X672167Y462337D01*
X671982Y462362D01*
X671797Y462392D01*
X671613Y462426D01*
X671430Y462465D01*
X671248Y462508D01*
X671068Y462556D01*
X670888Y462608D01*
X670710Y462665D01*
X670533Y462725D01*
X670358Y462791D01*
X670184Y462860D01*
X670012Y462934D01*
X669842Y463012D01*
X669674Y463094D01*
X669508Y463180D01*
X669344Y463270D01*
X669183Y463364D01*
X669023Y463462D01*
X668867Y463564D01*
X668712Y463670D01*
X668561Y463780D01*
X668412Y463893D01*
X668266Y464010D01*
X668123Y464130D01*
X667983Y464254D01*
X667846Y464381D01*
X667712Y464512D01*
X667581Y464646D01*
X667454Y464783D01*
X667330Y464923D01*
X667210Y465066D01*
X667093Y465212D01*
X666980Y465361D01*
X666870Y465512D01*
X666764Y465667D01*
X666662Y465823D01*
X666564Y465983D01*
X666470Y466144D01*
X666380Y466308D01*
X666294Y466474D01*
X666212Y466642D01*
X666134Y466812D01*
X666060Y466984D01*
X665991Y467158D01*
X665925Y467333D01*
X665865Y467510D01*
X665808Y467688D01*
X665756Y467868D01*
X665708Y468048D01*
X665665Y468230D01*
X665626Y468413D01*
X665592Y468597D01*
X665562Y468782D01*
X665537Y468967D01*
X665517Y469153D01*
X665501Y469339D01*
X665489Y469526D01*
X665482Y469713D01*
X665480Y469900D01*
D23*
X673100Y469900D03*
M02*
